<?xml version="1.0" encoding="utf-8"?>
<!-- Generator: Adobe Illustrator 21.0.2, SVG Export Plug-In . SVG Version: 6.00 Build 0)  -->
<svg version="1.1" id="Layer_1" xmlns="http://www.w3.org/2000/svg" xmlns:xlink="http://www.w3.org/1999/xlink" x="0px" y="0px"
	 viewBox="0 0 864 864" style="enable-background:new 0 0 864 864;" xml:space="preserve">
<style type="text/css">
	.st0{fill:#FFFFFF;}
	.st1{fill:#BE1622;}
</style>
<g>
	<path d="M820.1,563.1c10.9-10.9,14.3-25.4,10.7-40.4c-2.2-9.3-6.2-18.1-11.6-26c-0.2-0.3-0.4-0.6-0.6-0.8c-2.8-4.1-6-7.8-9.6-11.3
		c-2.5-2.4-6.9-7.5-10.5-8c0.7,0.1,1.5,0.2,2.2,0.4c2.6,0.4,6.1,1.6,8.8,1.1c3.1-0.6,3.8-3.2,2.9-5.5c-0.9-13.2-17.1-25.9-26.8-32.9
		c-6-4.3-18-10-28.2-10.6c0.6-0.4,1.3-0.8,1.9-1.3c1.6-1.1,1.6-3,0.1-4.2c-12.6-9.9-29.7-12.8-45.2-8.8c-8.4,2.2-17.8,6.7-24.9,13.2
		c0,0-0.1-0.1-0.1-0.1c1.2-1.6-0.4-4.5-2.7-4c-19.2,4.1-37.7,24.6-41,44c-7.7-4.1-12.7-11.2-16.9-20c-1.5-9.6-2-19.3-2.3-27.7
		c-1-24.6,0.6-49.1-1.3-73.7c-2.9-39.1-10-82.2-28.1-118c-9-31-32.4-57.7-58-76.4c-31.9-23.4-70.4-35.7-109-42
		c-40.7-6.6-83.4-9.2-123.6,1.2c-36.8,9.5-70.8,28.2-99.9,52.6c-16.6,13.9-31.5,29.6-45,46.4c-7,8.7-13.7,17.7-19.9,27
		c-3.1,4.6-6.3,9.3-9.1,14.1c-2.7,4.8-4.2,10-6.5,15c-15.2-3.7-32.3,1.8-44.2,12.4c-5.8,5.1-11,11.2-14.3,18.3
		c-3.7,7.8-4.3,14.4-2,22.9c1.2,4.3,3.2,8.4,6.3,11.5c-1.8,3.1-2.4,6.9-1.6,10.4c-6.7,2.5-13.5,5-18.1,10.9
		c-6.5,8.2-8.5,19.6-6.9,29.9c2.4,15.5,14.2,26.1,28.8,30.6c1.5,0.5,3.1,0.9,4.5,1.6c1.4,0.7,2.6,1.8,3.8,2.8
		c5.3,4.6,10.7,9.2,16.8,12.8c7.7,4.5,16.2,6.4,25.1,5.8c6.6-0.5,13.2-2.2,19.2-5.2c1.6-0.8,16.2-12.2,15.5-12.5
		c1.2,0.5,2.5,0.9,3.8,1.2c6.7,1.3,15.5-2.4,18.5-8.8c6.9,4.6,15.5,4,23.3,1.2c12.1-4.4,25.7-12.2,33.9-23.3
		c2.5,2.7,7.1,4.3,10.7,4.3c7.2,0,14.6-4.6,17.1-11.4c2,1.9,4.2,3.7,6.4,5.3c8.6,6,18.8,9.4,29.2,9.9c9.1,0.4,18.3-1.2,26.9-4.2
		c4.5-1.6,8.9-3.6,13-6.1c2.7-1.6,6.9-6.5,10.2-5.1c1.2,0.5,2.2,1.5,3.2,2.4c6.3,5.7,14.4,10.2,22.7,12.1c8.9,2,18,0.6,26.5-2.2
		c4.3-1.4,6.9-2.9,11.4-1.8c3.9,0.9,8.1,2.5,11.4,4.9c2.8,2.1,4.6,5.2,7.3,7.4c3.3,2.7,8.3,5.4,12.3,7c10.6,4.3,23.7,5.7,34.3,0.5
		c8.6,8.7,19.7,14.8,31.7,17.4c4.4,28.9,17.8,53.5,36.4,75.9c8.9,10.7,18.8,20.8,30.6,28.1c12.5,7.7,25.3,10.6,39.7,12.4
		c0.3,0,0.6,0.1,0.7,0.3c0.1,0.1,0.1,0.3,0.1,0.4c1.4,10.8,3.4,21.6,6.9,31.9c4.7,13.7,12.8,26.3,23.7,35.8
		c22.4,19.6,54.9,25.4,82.7,15.1c0.6-0.2,1.1-0.6,1.4-1.1c5.8,1.1,11.8,0.8,17.7-1.3c15.1-5.4,31.7-16.1,38.4-31.1c0,0,0-0.1,0-0.1
		c3-4.8-4.6-10.6-12.1-14c1-0.1,1.9-0.2,2.9-0.3C796.2,579.3,810.1,573.1,820.1,563.1z"/>
	<path class="st0" d="M523.8,420.4c-8,2.8-16.4,2.1-23.5-2.6c-4.2-2.8-7.3-6.5-8.9-11.4c-0.7-2-0.9-3.7-1.7-5.4
		c-0.1-2.1-2.2-4.1-4.4-2.6c-7.5,5-14.9,9-24.3,8.7c-4.5-0.2-22.8-4.4-25.1-11.6c2.9-0.5,5.6-1.8,7.8-4c2.8-2.7-1.1-6.6-4.1-4.3
		c-9,6.7-26.7-1.4-27.4-12.7c0-0.5-0.9-0.8-1-0.2c-0.8,3.8-0.1,7.4,1.7,10.5c-10.8,3.4-21.8,7.7-33.2,5.2c-9.4-2.1-17-7.8-23-15
		c-2.6-3.1,0-5.8,1.7-8.6c0.5-0.9,1-2.1,0.4-2.9c-0.4,0-0.8,0-1.1,0c-0.2,0-2.5,4.1-2.9,4.6c-1.7,2-3.8,3.5-5.8,5.2
		c-4.8,4.2-10.3,7.6-16.2,10.2c-11.6,5.2-25.1,7.7-37.7,5.1c-7.7-1.6-14.8-5-21.1-9.7c-3.3-2.5-6.3-5.3-9.2-8.2
		c-2.6-2.5-5.5-5.3-8.5-7.3c-0.2,1.8,0.8,3.4,1.8,5c1.9,2.9,4,5.4,3.4,9c-0.6,4.1-5.3,8.1-9,9.2c-2.5,0.7-8.4,0.6-11.4-1.7
		c2.1-3.5,3.7-7.4,4.4-11.5c0.6-3.3-4.1-4.9-5.2-1.6c-4.3,13-13.7,21.4-25.7,27.4c-11.6,5.8-41,9.8-39.8-11.3c0-0.8-1.2-1-1.4-0.2
		c-2.2,6.7-1.1,13.3,3.1,18.5c-3.8,3.7-6.8,7.4-13,6.5c-5.3-0.7-10.2-5.7-12.4-10.4c-0.3-0.6-1-0.2-1.1,0.3
		c-0.6,4.6,0.9,8.8,3.7,11.9c-10.1,9-22,15.6-36.1,14.3c-12.8-1.2-23.6-7.8-31.4-17.6c2.7-0.8,5.4-1.9,8.1-3.5
		c3.6-2.1,1.3-7.1-2.6-6.5c-8.6,1.3-17.2,5.2-25.2-0.3c-6.7-4.6-10.4-12.5-11.3-20.3c-1.5-12.5,4.4-30.3,16.9-35.1
		c0.9,2.4,2.3,4.7,4.6,6.6c1.1,0.9,2.7-0.1,2.1-1.5c-4.9-10-2.3-19.3,8.2-23.5c2.9-1.2,0.9-5.7-2-5c-3.5,0.9-6.5,2.8-8.8,5.4
		c-2.8-6.7-5.4-13.9-4.4-21.2c1.4-10.2,9.2-18.8,16.9-25c8.1-6.6,18.2-10.3,28.7-9.5c7.3,0.6,21.3,3.7,24.4,11.4
		c1.9,4.6,2.1,8.4,6,12c0.8,0.7,1.9-0.1,1.4-1.1c-6.1-13.4,11.5-28.9,22.7-32c13.1-3.6,20.6,3.8,30.1,10.9c1.7,1.3,4.4-0.7,3.8-2.8
		c-1-3.3-2.8-6-5-8.3c11.5-17.1,40-15.1,56-5.8c-0.8,3.2-0.9,6.4,0.2,9.3c0.4,1.1,1.8,1.4,2.5,0.4c2.2-3.2,2.5-6.8,3.9-10.3
		c2-4.9,5-9.5,8.7-13.4c7.2-7.5,16.9-11.9,27.1-13.6c18.4-2.9,44.1,3,49.6,23.5c0,0.1,0.1,0.2,0.1,0.3c-1.4,1.6-2.1,3.4-1.3,5.6
		c0,0.1,0.1,0.2,0.2,0.2c3.7,0.1,7.1-3.4,10.7-4.2c6.2-1.5,11.1,1.8,15.2,6c2.4,2.4,6.4-0.5,4.8-3.5c-2.2-4.1-6.1-7.1-10.5-8.5
		c11.9-12.7,31.7-16.8,48.5-12.9c17.9,4.1,28,16.1,34.5,32.3c-2.3,0.7-4.6,2-6.6,3.9c-1.4,1.3,0.2,3.3,1.6,3
		c6-0.7,10.9-2.3,16.9,0.1c5.4,2.2,8.7,6.3,11.2,11.4c1.4,2.9,6.5,1,5.4-2.1c-0.8-2.2-2-4.4-3.6-6.4c0.1-0.1,0.2-0.2,0.3-0.3
		c7.1-10,23-11.5,34.1-8.3c11.4,3.4,19.5,12.3,21.7,23.9c0,0.2,0.1,0.4,0.2,0.5c-1.8,1.2-3.2,3-3.8,5.5c-0.1,0.2,0.1,0.4,0.3,0.4
		c2.8-0.5,5.4-2,8.2-2.6c4.7-1,9.4,0.3,13.3,3c7,4.9,9.5,12.8,5.6,20.6c-1.1,2.1,1.6,4.8,3.5,2.8c2.7-2.7,4-6,4.3-9.3
		c8.5-0.5,16.2,0.7,22.1,8c1.6,2,3,4.3,4,6.7c0,0.1,0,0.3,0.1,0.4c2.5,5.9,2.2,11.4-1.9,16.4c-0.1,0.1-0.2,0.3-0.2,0.4
		c-2.9,0.7-2.7,5.1,0.6,5.5c18.2,2,25.9,16.7,21.1,33.8c-3.7,13.2-13.7,19.3-25.2,24.7c-0.8-1.9-1.9-3.8-3.3-5.6
		c-0.9-1.2-2.7,0.3-2.1,1.5c7.9,16.1-4.1,32.8-20.2,36.1c-12.5,2.6-29.7-4.4-31.2-16.9c0.4-0.8,0.3-1.8-0.1-2.7
		c0.2-2.5,0.9-5.2,2.5-8.1c0.4-0.8-0.6-1.8-1.3-1.1C526.1,415,524.7,417.6,523.8,420.4C523.8,420.4,523.8,420.4,523.8,420.4z"/>
	<path class="st1" d="M598.3,533.5c9.4-1,18.3-7.2,24-14.7c0.1-0.1-0.1-0.2-0.1-0.2c-9.4,6.6-22.4,14.5-34.1,9.2
		c-2.7-1.2-5.1-3-7.4-4.8c-10-8-19.1-16.2-27.4-26.1c-9.6-11.4-17.5-23.7-23.2-37.3c5.7,4.9,12.9,7.7,20.5,6c0.2,0,0.2-0.3,0-0.4
		c-9.4-3.7-17.9-7.7-24.1-15.2c-0.2-0.6-0.4-1.2-0.6-1.9c-1-3.2-1.8-6.8-1.6-10.2c0-0.3,0.1-0.6,0.2-0.9c0.6-0.8,1.9,0,2.5,0.8
		c3.1,3.9,6.2,7.9,11.1,9.2c5.7,1.6,11.6,2.5,17.5,1.8c9.7-1.1,19.1-6.4,24.9-14.3c2.6-3.6,4.9-8.3,5.2-12.9
		c0.2-3.4,0.6-7.8,4.1-9.6c2.9-1.5,6.3-1.3,9.4-3.1c5.2-3.1,9-8,11.6-13.4c5.2-11,6-25.1,0.7-36.2c-3.1-6.4-8.4-11.5-15.4-13.4
		c5.8-7.3-0.3-22.7-5-28.7c-3.3-4.1-8.1-4.9-9.9-10.3c-1.2-3.7-2.3-11-1.6-14.7c2.3-12.3,2.1-25.9-0.7-38.4
		c-1-11.3-5.2-22.2-13.4-29.6c-0.3-0.2-0.7,0-0.6,0.3c1.9,7.4,8.3,17.6,6.1,25.3c-0.1,0.3-0.2,0.6-0.4,0.8c-0.4,0.5-1.1,0.5-1.7,0.3
		c-0.6-0.2-1-0.7-1.4-1.2c-3.1-3.7-4.5-9.7-6.8-14.1c-2.5-4.9-5.2-9.6-8.2-14.2c-5.9-9-12.9-17.3-20.9-24.5
		c-0.3-0.3-0.9,0.1-0.6,0.5c1.3,1.9,2.6,3.8,3.8,5.7c8.7,15.5,17.3,31,22.5,48.1c1.6,5.2,2.7,10.3,1.5,15.7
		c-0.1,0.6-0.3,1.2-0.7,1.6c-0.5,0.5-1.4,0.6-2.1,0.4c-0.7-0.2-1.3-0.7-1.9-1.1c-6.8-5.3-12.1-12-18.9-17.3
		c-6.6-5.2-13.7-9.8-21.2-13.7c-0.9-0.5-1.9-1-2.9-0.7c0,0.9,0.9,1.6,1.7,2.1c6.4,4.6,11,10.7,16.6,16c7.4,8,15.5,17.5,17.5,28.5
		c0.3,1.6,0.3,3.6-1,4.6c-0.4,0.3-0.9,0.5-1.4,0.6c-4.4,1-7.4-2.1-9.1-5.6c-1.8-3.6-3.7-7-6.5-10c-5.6-6-13.3-9.9-21.4-11.3
		c-11-1.9-30.3-0.2-35.3,12c-4.5-3.9-10.2-6.6-15.8-6.7c-2.4-19.4-21.3-34.5-39.6-38.1c-16.9-3.4-44.6,0.1-51.8,18.8
		c-1.7-0.3-3.4-0.3-5.2-0.1c-1.5,0.2-3.6,0.8-5.6,1.7c-7-21.3-32.6-28.7-53.1-26.4c-11.9,1.3-23.4,6.1-32,14.5
		c-3.4,3.3-7.4,8.3-10,13.6c-10.8-7-24.5-8.5-36.9-6c-9.5,1.9-20.2,6.2-23.3,15.6c-9.4-7.4-24.7-8.1-34.9-3.2
		c-7.2,3.5-16,11.2-19.6,19.6c-3.7-3.7-7.8-6.4-12.1-8.3c0.3-0.6,0.6-1.5,1.1-2.4c5.6-9.3,10.3-19.5,17.5-27.5
		c7.4-8.3,18.3-13.7,28-19c19.7-10.8,40.6-18.2,62.2-24.5c0.1,0,0-0.1,0-0.1c-23.2,3.7-45.9,12-66.9,22.6
		c-5.5,2.8-11.2,5.8-16.5,9.4c0.5-0.7,1-1.4,1.5-2.1c11.2-15.3,23.8-29.7,37.5-42.9c13.7-13.1,28.6-25.6,45.4-34.5
		c18.9-10,39.8-17.9,61.1-19.2c15.7-1,30.9,1,46,5.2c1.1,0.3,1.6-1.3,0.5-1.7c-15.3-5.4-31.7-8-47.9-7.6c-7,0.2-14,1.1-20.8,2.7
		c3.4-1.4,6.8-2.7,10.3-3.9c37.3-12.9,75.8-13.6,114.8-9.5c39.6,4.1,79.7,13.4,114.3,33.8c34.1,20.1,58.5,49.2,72.6,86
		c0.2,0.4,0.4,0.8,0.7,1.1c5.5,17.2,11.4,34.2,15.5,51.8c6.1,25.7,9.5,52,10.3,78.4c0.3,9.7,0.1,19.4,0.1,29.1
		c-0.1,9.4-0.9,19.4,0.4,28.7c1.9,13.2-4.3,26.8-15.3,34.2c-0.1,0,0,0.2,0.1,0.2c6.9-2.5,13.1-7.9,16.8-14.5
		c1.7,13.9,4.4,27.5,13.8,38.5c3.1,3.6,6.9,6.7,11.4,8.1c-0.2-1.4-1.3-2.4-2.3-3.5c-3.5-3.5-5.9-8-8.1-12.4
		c-0.5-0.9-0.9-1.9-0.5-2.8c0.9-2.4,3.4,1.1,4.3,1.7c2.3,1.6,5.1,2.6,7.8,3.3c5.3,1.5,11,1.8,16.4,2.7c20.8,3.3,11.7,32.8,1.8,42.6
		c-10.4,10.3-26.5,16-40.8,17.6C615.6,538.7,606.7,537,598.3,533.5z"/>
	<path class="st0" d="M814.8,501.4c-3.5-5.5-7.6-10.5-12-15.4c-2.2-2.5-4.6-5-6.9-7.4c-0.9-0.9-5.1-6.5-6.1-6.5
		c2.5-0.2,5.1-0.2,7.6,0.1c2,0.3,4.2,0.7,6.1-0.1c0.3-0.1,0.6-0.3,0.7-0.6c0.1-0.2,0-0.5-0.1-0.7c-3.8-10.6-14.6-19.7-23.4-26
		c-5.8-4.1-12.2-7.3-19.2-9c-1.4-0.3-17.4-1-13.1-5.1c0.4-0.4,5.4-5.1,5.7-5c-12-7.3-26-9.4-39.8-5.3c-6.6,2-12.4,5.7-17.7,9.9
		c-4.1,3.2-9.7,10.3-15,11.2c-0.4,0.1-1,0-1.2-0.3c-0.1-0.2-0.1-0.4-0.1-0.6c0.3-3.4,1.1-6.8,2.7-9.7c-9.6,4.9-17.4,11.1-23.6,20.6
		c-2.9,4.5-5.1,9.3-7.4,14.2c-0.4,0.9-0.9,2.6-1.8,4c2.4,0.8,5,1.3,7.9,1.6c10.5,0.9,18.3,3.1,22.6,13.7
		c8.1,19.9-7.2,40.1-23.8,49.6c-9.1,5.2-19.1,8.7-29.3,10c1.2,2.7,0.9,5.8,1.1,8.8c0.5,6.9,1.5,13.8,3.6,20.4
		c4,12.8,11.2,24.6,21,33.8c9.9,9.4,22.5,15.6,35.9,18.4c6.6,1.4,13.4,1.9,20.2,1.6c3.2-0.1,9.6,0.3,12-2c0.1-0.1,0.3-0.3,0.3-0.5
		c0-0.2-0.2-0.5-0.3-0.6c-3-3.1-7-5.1-9.2-8.9c0.2-0.9,1.5-0.8,2.4-0.5c9.2,3.4,18.2,7.1,28.2,7.3c4.2,0.1,8.1-1.1,11.9-2.8
		c12.7-5.5,23-13.3,31.2-24.2c-0.1-0.6,0.1-1.3,0.7-1.7c1.9-1.5-16.1-13.5-17.3-14.2c-0.5-0.3-1.1-0.9-0.8-1.4
		c6.5,1.3,13-1.7,19.1-3.4c6.2-1.8,12.3-3.8,17.9-7.1c0.5-0.3,1-0.7,1.6-1c7.5-7.4,14.3-16.2,16.9-26.3
		C827.5,527.3,821.8,512.4,814.8,501.4z M788.8,543.2c-1.9,4.2-4.4,7.6-7.7,10.6c5.6,3.6-0.5,11.6-5,14.6
		c-7.1,4.9-15.2,8.4-23.2,11.5c-4,1.6-8.3,3.8-12.7,4.6c1.4,1.2,2.5,2.6,3.1,4.4c0.2,0.6-0.1,1.2-0.5,1.7c-5.2,5.4-16,6.9-23.2,7.2
		c-8.2,0.4-15.7-1.4-23.1-4.4c0.1,1.4-0.2,2.8-1.6,3.8c-2.7,2.1-6.3,0.4-8.9-0.9c-3.3-1.6-6.4-4.2-9.2-6.6c-1.6-1.4-3.1-2.8-4.6-4.2
		c-2.9-2.8-5.6-5.8-7.9-9.1c-1-1.4-2-2.9-2.9-4.5c-0.4-0.7-2.6-3.9-2-4.5c0.3-0.3,0.8-0.2,1.1,0.1c4.1,4.6,8.3,9.4,12.8,13.7
		c4.8,4.5,10.1,8.6,16.1,11.4c0.6,0.3,1.4,0.6,1.9,0.2c0.4-0.3,0.5-0.7,0.6-1.2c0.2-1,0.2-2,0.1-3c0-0.3,0-0.7,0.3-0.8
		c0.1,0,0.2,0,0.3,0.1c3.9,1.5,7.6,3.4,11.6,4.5c4.1,1.1,8.4,1.7,12.6,1.7c4.2,0,8.4-0.4,12.5-1.4c2.9-0.7,15-3.6,5.1-8.1
		c-1.5-0.7-1.5-3.2,0.5-3.2c7.9,0.4,17.7-5,24.8-8.2c2.8-1.2,5.5-2.6,8.2-4c1.4-0.8,18-11.3,9.4-13.4c-1.6-0.4-1.4-2.4-0.3-3.2
		c4.1-3,6.8-6.5,9.3-10.8C787,540.7,789.4,541.7,788.8,543.2z"/>
</g>
</svg>
